{
    "asset" : {
        "generator" : "Khronos glTF Blender I/O v3.2.43",
        "version" : "2.0"
    },
    "scene" : 0,
    "scenes" : [
        {
            "name" : "Scene",
            "nodes" : [
                0
            ]
        }
    ],
    "nodes" : [
        {
            "mesh" : 0,
            "name" : "Torch",
            "rotation" : [
                0,
                0,
                -0.0574500672519207,
                0.9983483552932739
            ]
        }
    ],
    "materials" : [
        {
            "doubleSided" : true,
            "name" : "Wood",
            "pbrMetallicRoughness" : {
                "baseColorFactor" : [
                    0.1328628659248352,
                    0.02082679234445095,
                    0.0023565422743558884,
                    1
                ],
                "metallicFactor" : 0,
                "roughnessFactor" : 0.8622047305107117
            }
        },
        {
            "doubleSided" : true,
            "name" : "Metal",
            "pbrMetallicRoughness" : {
                "baseColorFactor" : [
                    0.12492722272872925,
                    0.14962278306484222,
                    0.17886099219322205,
                    1
                ],
                "metallicFactor" : 0.7401574850082397,
                "roughnessFactor" : 0.4527558386325836
            }
        }
    ],
    "meshes" : [
        {
            "name" : "Cylinder",
            "primitives" : [
                {
                    "attributes" : {
                        "POSITION" : 0,
                        "NORMAL" : 1,
                        "TEXCOORD_0" : 2
                    },
                    "indices" : 3,
                    "material" : 0
                },
                {
                    "attributes" : {
                        "POSITION" : 4,
                        "NORMAL" : 5,
                        "TEXCOORD_0" : 6
                    },
                    "indices" : 7,
                    "material" : 1
                }
            ]
        }
    ],
    "accessors" : [
        {
            "bufferView" : 0,
            "componentType" : 5126,
            "count" : 24,
            "max" : [
                0.08660254627466202,
                0.34656083583831787,
                0.10000000149011612
            ],
            "min" : [
                -0.08660254627466202,
                -0.1832505762577057,
                -0.10000000149011612
            ],
            "type" : "VEC3"
        },
        {
            "bufferView" : 1,
            "componentType" : 5126,
            "count" : 24,
            "type" : "VEC3"
        },
        {
            "bufferView" : 2,
            "componentType" : 5126,
            "count" : 24,
            "type" : "VEC2"
        },
        {
            "bufferView" : 3,
            "componentType" : 5123,
            "count" : 36,
            "type" : "SCALAR"
        },
        {
            "bufferView" : 4,
            "componentType" : 5126,
            "count" : 316,
            "max" : [
                0.08660254627466202,
                0.5,
                0.10000000149011612
            ],
            "min" : [
                -0.08660254627466202,
                -0.1832505762577057,
                -0.10000000149011612
            ],
            "type" : "VEC3"
        },
        {
            "bufferView" : 5,
            "componentType" : 5126,
            "count" : 316,
            "type" : "VEC3"
        },
        {
            "bufferView" : 6,
            "componentType" : 5126,
            "count" : 316,
            "type" : "VEC2"
        },
        {
            "bufferView" : 7,
            "componentType" : 5123,
            "count" : 492,
            "type" : "SCALAR"
        }
    ],
    "bufferViews" : [
        {
            "buffer" : 0,
            "byteLength" : 288,
            "byteOffset" : 0
        },
        {
            "buffer" : 0,
            "byteLength" : 288,
            "byteOffset" : 288
        },
        {
            "buffer" : 0,
            "byteLength" : 192,
            "byteOffset" : 576
        },
        {
            "buffer" : 0,
            "byteLength" : 72,
            "byteOffset" : 768
        },
        {
            "buffer" : 0,
            "byteLength" : 3792,
            "byteOffset" : 840
        },
        {
            "buffer" : 0,
            "byteLength" : 3792,
            "byteOffset" : 4632
        },
        {
            "buffer" : 0,
            "byteLength" : 2528,
            "byteOffset" : 8424
        },
        {
            "buffer" : 0,
            "byteLength" : 984,
            "byteOffset" : 10952
        }
    ],
    "buffers" : [
        {
            "byteLength" : 11936,
            "uri" : "data:application/octet-stream;base64,"
        }
    ]
}
